HIERARCHY
ROOT hips
{
  OFFSET 0 10.6860622 2.3727825e-15
  CHANNELS 6 Xposition Yposition Zposition Yrotation Xrotation Zrotation
  JOINT leftUpperLeg
  {
    OFFSET 0.6642549969 -0.9402397400000004 0
    CHANNELS 3 Yrotation Xrotation Zrotation
    JOINT leftLowerLeg
    {
      OFFSET 0 -3.997221335632195 0
      CHANNELS 3 Yrotation Xrotation Zrotation
      JOINT leftFoot
      {
        OFFSET -0.13777839790000004 -4.6145792000000005 -0.22186036399999998
        CHANNELS 3 Yrotation Xrotation Zrotation
        JOINT leftToes
        {
          OFFSET -0.03777410834999995 -0.9130806927000008 0.85230013
          CHANNELS 3 Yrotation Xrotation Zrotation
          End Site
          {
            OFFSET -0.03777410834999995 -0.9130806927000008 0.85230013
          }
        }
      }
    }
  }
  JOINT rightUpperLeg
  {
    OFFSET -0.6642778626 -0.9402397400000004 0
    CHANNELS 3 Yrotation Xrotation Zrotation
    JOINT rightLowerLeg
    {
      OFFSET 0 -3.997221452859387 0
      CHANNELS 3 Yrotation Xrotation Zrotation
      JOINT rightFoot
      {
        OFFSET 0.1377926176 -4.6145792000000005 -0.22185782299999995
        CHANNELS 3 Yrotation Xrotation Zrotation
        JOINT rightToes
        {
          OFFSET 0.037780746850000047 -0.9130806927000008 0.85230167
          CHANNELS 3 Yrotation Xrotation Zrotation
          End Site
          {
            OFFSET 0.037780746850000047 -0.9130806927000008 0.85230167
          }
        }
      }
    }
  }
  JOINT spine
  {
    OFFSET 0 0.13988381660000015 0
    CHANNELS 3 Yrotation Xrotation Zrotation
    JOINT chest
    {
      OFFSET 0 0.6191039003973773 0
      CHANNELS 3 Yrotation Xrotation Zrotation
      JOINT upperChest
      {
        OFFSET 0 0.9855186130586943 0
        CHANNELS 3 Yrotation Xrotation Zrotation
        JOINT leftShoulder
        {
          OFFSET 0.1807663869 1.5087829790000005 0
          CHANNELS 3 Yrotation Xrotation Zrotation
          JOINT leftUpperArm
          {
            OFFSET 0.5985063006419806 0 0
            CHANNELS 3 Yrotation Xrotation Zrotation
            JOINT leftLowerArm
            {
              OFFSET 2.2993332369501065 0 0
              CHANNELS 3 Yrotation Xrotation Zrotation
              JOINT leftHand
              {
                OFFSET 2.395047042602395 0 0
                CHANNELS 3 Yrotation Xrotation Zrotation
                JOINT leftIndexProximal
                {
                  OFFSET 0.5766295810000004 0.04556643899499946 0.17265095988184
                  CHANNELS 3 Yrotation Xrotation Zrotation
                  JOINT leftIndexIntermediate
                  {
                    OFFSET 0.2957229000000008 -0.019352197700001517 -0.007932640616999987
                    CHANNELS 3 Yrotation Xrotation Zrotation
                    JOINT leftIndexDistal
                    {
                      OFFSET 0.19008243099999922 -0.012484908149998475 -0.002786250786000012
                      CHANNELS 3 Yrotation Xrotation Zrotation
                      End Site
                      {
                        OFFSET 0.19008243099999922 -0.012484908149998475 -0.002786250786000012
                      }
                    }
                  }
                }
                JOINT leftMiddleProximal
                {
                  OFFSET 0.5834975091000001 0.0524350405149987 0.02204081888183999
                  CHANNELS 3 Yrotation Xrotation Zrotation
                  JOINT leftMiddleIntermediate
                  {
                    OFFSET 0.33880573540000003 -0.019871473270000717 -0.00000971183179999946
                    CHANNELS 3 Yrotation Xrotation Zrotation
                    JOINT leftMiddleDistal
                    {
                      OFFSET 0.20676022730000088 -0.012221336379999448 0.0001471936708000235
                      CHANNELS 3 Yrotation Xrotation Zrotation
                      End Site
                      {
                        OFFSET 0.20676022730000088 -0.012221336379999448 0.0001471936708000235
                      }
                    }
                  }
                }
                JOINT leftLittleProximal
                {
                  OFFSET 0.5344154683999995 -0.012880921405001189 -0.24414037221816004
                  CHANNELS 3 Yrotation Xrotation Zrotation
                  JOINT leftLittleIntermediate
                  {
                    OFFSET 0.21758961730000093 -0.011650919939999227 0.011893592810000034
                    CHANNELS 3 Yrotation Xrotation Zrotation
                    JOINT leftLittleDistal
                    {
                      OFFSET 0.1475273964999999 -0.008152365682999818 0.006001092492999946
                      CHANNELS 3 Yrotation Xrotation Zrotation
                      End Site
                      {
                        OFFSET 0.1475273964999999 -0.008152365682999818 0.006001092492999946
                      }
                    }
                  }
                }
                JOINT leftRingProximal
                {
                  OFFSET 0.5799399463000003 0.026911854694997794 -0.12150566991816003
                  CHANNELS 3 Yrotation Xrotation Zrotation
                  JOINT leftRingIntermediate
                  {
                    OFFSET 0.26167887460000006 -0.013480186499999602 0.010996293000000053
                    CHANNELS 3 Yrotation Xrotation Zrotation
                    JOINT leftRingDistal
                    {
                      OFFSET 0.17667108799999987 -0.008990287899999228 0.0055541023999999065
                      CHANNELS 3 Yrotation Xrotation Zrotation
                      End Site
                      {
                        OFFSET 0.17667108799999987 -0.008990287899999228 0.0055541023999999065
                      }
                    }
                  }
                }
                JOINT leftThumbProximal
                {
                  OFFSET 0.11018806699999972 -0.09448718900500053 0.17047963138184
                  CHANNELS 3 Yrotation Xrotation Zrotation
                  JOINT leftThumbIntermediate
                  {
                    OFFSET 0.31062601459999983 -0.08126270900000132 0.15443142000000007
                    CHANNELS 3 Yrotation Xrotation Zrotation
                    JOINT leftThumbDistal
                    {
                      OFFSET 0.21627175790000086 -0.08833193599999878 0.018771167799999988
                      CHANNELS 3 Yrotation Xrotation Zrotation
                      End Site
                      {
                        OFFSET 0.21627175790000086 -0.08833193599999878 0.018771167799999988
                      }
                    }
                  }
                }
              }
            }
          }
        }
        JOINT neck
        {
          OFFSET 0 1.5463305265074576 0
          CHANNELS 3 Yrotation Xrotation Zrotation
          JOINT head
          {
            OFFSET 0 0.8456443600000344 0
            CHANNELS 3 Yrotation Xrotation Zrotation
            JOINT leftEye
            {
              OFFSET 0.30408573140000006 0.5104519199999995 0.1276382305
              CHANNELS 3 Yrotation Xrotation Zrotation
              End Site
              {
                OFFSET 0.30408573140000006 0.5104519199999995 0.1276382305
              }
            }
            JOINT rightEye
            {
              OFFSET -0.30409491089999996 0.5104519199999995 0.1276379445
              CHANNELS 3 Yrotation Xrotation Zrotation
              End Site
              {
                OFFSET -0.30409491089999996 0.5104519199999995 0.1276379445
              }
            }
            JOINT jaw
            {
              OFFSET -3.155239131000001e-7 -0.11984121820000082 0.60178107
              CHANNELS 3 Yrotation Xrotation Zrotation
              End Site
              {
                OFFSET -3.155239131000001e-7 -0.11984121820000082 0.60178107
              }
            }
          }
        }
        JOINT rightShoulder
        {
          OFFSET -0.1807303465 1.5087829790000005 0
          CHANNELS 3 Yrotation Xrotation Zrotation
          JOINT rightUpperArm
          {
            OFFSET -0.5985063796536958 0 0
            CHANNELS 3 Yrotation Xrotation Zrotation
            JOINT rightLowerArm
            {
              OFFSET -2.2993322059002854 0 0
              CHANNELS 3 Yrotation Xrotation Zrotation
              JOINT rightHand
              {
                OFFSET -2.395045314457259 0 0
                CHANNELS 3 Yrotation Xrotation Zrotation
                JOINT rightIndexProximal
                {
                  OFFSET -0.5764487688300002 0.0441371204405987 0.17361932004999997
                  CHANNELS 3 Yrotation Xrotation Zrotation
                  JOINT rightIndexIntermediate
                  {
                    OFFSET -0.29573011380000047 -0.01934826376999843 -0.007698921482999974
                    CHANNELS 3 Yrotation Xrotation Zrotation
                    JOINT rightIndexDistal
                    {
                      OFFSET -0.19008373999999884 -0.012503266380000655 -0.0026365778999999897
                      CHANNELS 3 Yrotation Xrotation Zrotation
                      End Site
                      {
                        OFFSET -0.19008373999999884 -0.012503266380000655 -0.0026365778999999897
                      }
                    }
                  }
                }
                JOINT rightMiddleProximal
                {
                  OFFSET -0.5834852037300005 0.05211639405060153 0.02307162440000001
                  CHANNELS 3 Yrotation Xrotation Zrotation
                  JOINT rightMiddleIntermediate
                  {
                    OFFSET -0.33880114510000003 -0.019952774050000954 0.0002455003561999819
                    CHANNELS 3 Yrotation Xrotation Zrotation
                    JOINT rightMiddleDistal
                    {
                      OFFSET -0.20675694929999955 -0.012273788999999091 0.00030209124000002766
                      CHANNELS 3 Yrotation Xrotation Zrotation
                      End Site
                      {
                        OFFSET -0.20675694929999955 -0.012273788999999091 0.00030209124000002766
                      }
                    }
                  }
                }
                JOINT rightLittleProximal
                {
                  OFFSET -0.5346811737299992 -0.011214256288399227 -0.24363941305000003
                  CHANNELS 3 Yrotation Xrotation Zrotation
                  JOINT rightLittleIntermediate
                  {
                    OFFSET -0.21757715980000092 -0.011771559690000988 0.01201554387
                    CHANNELS 3 Yrotation Xrotation Zrotation
                    JOINT rightLittleDistal
                    {
                      OFFSET -0.1475201849000004 -0.00822055339600003 0.006082065407000015
                      CHANNELS 3 Yrotation Xrotation Zrotation
                      End Site
                      {
                        OFFSET -0.1475201849000004 -0.00822055339600003 0.006082065407000015
                      }
                    }
                  }
                }
                JOINT rightRingProximal
                {
                  OFFSET -0.5800810755299999 0.027657985680600072 -0.12066365025000003
                  CHANNELS 3 Yrotation Xrotation Zrotation
                  JOINT rightRingIntermediate
                  {
                    OFFSET -0.26166445029999974 -0.013623118409999302 0.011164098990000045
                    CHANNELS 3 Yrotation Xrotation Zrotation
                    JOINT rightRingDistal
                    {
                      OFFSET -0.17666387530000027 -0.009072900100000503 0.005668185599999959
                      CHANNELS 3 Yrotation Xrotation Zrotation
                      End Site
                      {
                        OFFSET -0.17666387530000027 -0.009072900100000503 0.005668185599999959
                      }
                    }
                  }
                }
                JOINT rightThumbProximal
                {
                  OFFSET -0.10997596379000074 -0.09577489355940072 0.16989765924999997
                  CHANNELS 3 Yrotation Xrotation Zrotation
                  JOINT rightThumbIntermediate
                  {
                    OFFSET -0.31036620999999986 -0.08229339117999834 0.15440884469999996
                    CHANNELS 3 Yrotation Xrotation Zrotation
                    JOINT rightThumbDistal
                    {
                      OFFSET -0.21631306399999906 -0.08825326400000111 0.018656797720000014
                      CHANNELS 3 Yrotation Xrotation Zrotation
                      End Site
                      {
                        OFFSET -0.21631306399999906 -0.08825326400000111 0.018656797720000014
                      }
                    }
                  }
                }
              }
            }
          }
        }
      }
    }
  }
}
MOTION
Frames: 9
Frame Time: 0.03333333333333333
0 11.682712981546562 0 0 0 0 0 0 -5.826343164929014 -0.3712483961610101 -3.6333298826370974 5.838118207697276 0 0 0 0 0 0 0 0 5.826343164929014 0.3712483961610101 -3.6333298826370974 -5.838118207697276 0 0 0 0 0 0 0 -4.610651315171937 0 0 3.0831277533083026 0 0 0 0 0 1.5275236235667615 0 0 0 0 0 0 0 0 0 0 0 0 0 0 0 0 0 0 0 0 0 0 0 0 0 0 0 0 0 0 0 0 0 0 0 0 0 0 0 0 0 0 0 0 0 0 0 0 0 0 0 0 0 0 0 0 1.5275236235667615 0 0 0 0 0 0 0 0 0 0 0 0 0 0 1.5275236235667615 0 0 0 0 0 0 0 0 0 0 0 0 0 0 0 0 0 0 0 0 0 0 0 0 0 0 0 0 0 0 0 0 0 0 0 0 0 0 0 0 0 0 0 0 0 0 0 0 0 0 0 0 0 0 0
2.1468555533869287 -11.147055686473893 2.1468555533869287 -179.99678485197077 -15.990665599211075 -106.00393020423839 18.23872303864519 5.938184236881055 14.04371407340937 11.616964916803616 61.72851928597106 7.983796411709601 -0.003501796408491745 2.9991939409072557 -1.0023681868484131 0 0 0 17.589791580072998 -34.15088945794299 -67.7148473122094 -173.41813124029784 48.32352261224107 -171.21833230964097 0 20.996786438572162 0 0 0 0 -2.206191913769544e-14 79.38824229359064 -2.6579258807799976e-14 0 23.081294275643288 0 0 0 0 0 1.5275236235667615 0 -92.51460027627094 -45.960442447690134 2.801913200570323 -147.82760037375155 -19.923408896304075 5.321564788568377 27.219046573204412 14.839546971007364 49.73296758288517 0 0 0 0 0 0 0 0 0 0 0 0 0 0 0 0 0 0 0 0 0 0 0 0 0 0 0 0 0 0 0 0 0 0 0 0 0 0 0 0 0 0 0 0 0 0 32.52667392937385 0 0 -35.00044290064474 0 0 0 0 0 0 0 0 0 0 18.168403253195194 2.4385839357223555 9.477297252938165 53.30220516764479 -31.59109216894932 41.289242723824 6.086433613006504 0.9943330344905733 4.997732603022402 -14.712058906009275 13.737927559783653 39.39194205752698 0 0 0 0 0 0 0 0 0 0 0 0 0 0 0 0 0 0 0 0 0 0 0 0 0 0 0 0 0 0 0 0 0 0 0 0 0 0 0 0 0 0 0 0 0
2.1468555533869287 -11.147055686473893 2.1055545455015356 -179.9967842814716 -15.990653165268759 -106.00391458586516 18.786542645771824 6.5869142323317345 13.928241444180848 11.158817166510609 60.75504684438554 7.576640946883089 -0.003501796408491745 2.9991939409072557 -1.0023681868484131 0 0 0 17.65317946735105 -34.44423854257158 -67.82666355829082 -173.41813428198316 48.32350720403536 -171.21833544612724 0 20.996786438572162 0 0 0 0 9.276508244794338e-14 79.38824229359064 1.0179976351885732e-13 0 23.081296131774778 0 0 0 0 0 1.5275236235667615 0 -92.51457018177848 -45.960427709560236 2.801880652219082 -147.82760037375155 -19.923408896304075 5.321564788568377 27.2190481440583 14.839548737471826 49.73296758288517 0 0 0 0 0 0 0 0 0 0 0 0 0 0 0 0 0 0 0 0 0 0 0 0 0 0 0 0 0 0 0 0 0 0 0 0 0 0 0 0 0 0 0 0 0 0 32.52667797981593 0 0 -35.00044290064474 0 0 0 0 0 0 0 0 0 0 18.168403253195194 2.4385839357223555 9.477297252938165 53.30220516764479 -31.59109216894932 41.289242723824 5.011526520887075 0.9942480712197924 4.9979195337666305 -14.71205805590757 13.737928438701262 39.39194205752698 0 0 0 0 0 0 0 0 0 0 0 0 0 0 0 0 0 0 0 0 0 0 0 0 0 0 0 0 0 0 0 0 0 0 0 0 0 0 0 0 0 0 0 0 0
2.1468555533869287 -11.147055686473893 2.0642535376161426 -179.9967851327666 -15.990663822933556 -106.00395948208363 19.33414538759857 7.237122676471741 13.818804486826 10.727508895417172 59.77927203346056 7.196595386937766 -0.003501796408491745 2.9991930859625673 -1.0023681868484131 0 0 0 17.71748499367437 -34.737486831749706 -67.93926851934494 -173.41813124029784 48.32352261224107 -171.21833230964097 0 20.996786438572162 0 0 0 0 -1.7544579467590908e-14 79.38824229359064 -3.109659847790451e-14 0 23.081292419511826 0 0 0 0 0 1.5275236235667615 0 -92.51464034011364 -45.960452273112246 2.8019568558547387 -147.8275842064365 -19.92340708005227 5.321564451670577 27.21904024470379 14.839548737471826 49.732962603606175 0 0 0 0 0 0 0 0 0 0 0 0 0 0 0 0 0 0 0 0 0 0 0 0 0 0 0 0 0 0 0 0 0 0 0 0 0 0 0 0 0 0 0 0 0 0 32.52667392937385 0 0 -35.00044290064474 0 0 0 0 0 0 0 0 0 0 18.168403253195194 2.4385839357223555 9.477295847226264 53.30220516764479 -31.59109216894932 41.289242723824 3.935573702757589 0.9941660966088498 4.998108293576809 -14.712057205805861 13.737927559783653 39.39194205752698 0 0 0 0 0 0 0 0 0 0 0 0 0 0 0 0 0 0 0 0 0 0 0 0 0 0 0 0 0 0 0 0 0 0 0 0 0 0 0 0 0 0 0 0 0
2.1468555533869287 -11.147055686473893 2.0229525297307496 -179.99678485197077 -15.990665599211075 -106.00393020423839 19.881596811229027 7.888672055580706 13.715430437992254 10.320638154265122 58.80148366532343 6.8412573018038145 -0.003501796408491745 2.9991939409072557 -1.0023681868484131 0 0 0 17.78274439933521 -35.03066182845081 -68.05267099904516 -173.41813124029784 48.32352261224107 -171.21833230964097 0 20.996786438572162 0 0 0 0 -2.206191913769544e-14 79.38824229359064 -2.6579258807799976e-14 0 23.081294275643288 0 0 0 0 0 1.5275236235667615 0 -92.51460027627094 -45.960442447690134 2.801913200570323 -147.8275842064365 -19.92340708005227 5.321563547458853 27.219046573204412 14.839546971007364 49.73296758288517 0 0 0 0 0 0 0 0 0 0 0 0 0 0 0 0 0 0 0 0 0 0 0 0 0 0 0 0 0 0 0 0 0 0 0 0 0 0 0 0 0 0 0 0 0 0 32.52667392937385 0 0 -35.00044290064474 0 0 0 0 0 0 0 0 0 0 18.168403253195194 2.4385839357223555 9.477297252938165 53.30220516764479 -31.59109216894932 41.289242723824 2.858766171562397 0.9940880712974607 4.99829790402358 -14.712058906009275 13.737927559783653 39.39194205752698 0 0 0 0 0 0 0 0 0 0 0 0 0 0 0 0 0 0 0 0 0 0 0 0 0 0 0 0 0 0 0 0 0 0 0 0 0 0 0 0 0 0 0 0 0
2.1468555533869287 -11.147055686473893 1.9816515218453568 -179.99678342130406 -15.990654941546188 -106.00391458586516 20.428976399578183 8.541432761840051 13.618145669421036 9.936066078561858 57.8219406052633 6.508490786103506 -0.003501796408491745 2.9991939409072557 -1.0023681868484131 0 0 0 17.84895138696098 -35.32374534740719 -68.16692521565523 -173.41813124029784 48.32352261224107 -171.21833230964097 0 20.996786438572162 0 0 0 0 4.412383827539088e-14 79.38824229359064 5.315851761559995e-14 0 23.081296131774778 0 0 0 0 0 1.5275236235667615 0 -92.51460027627094 -45.960442447690134 2.801913200570323 -147.82760037375155 -19.923408896304075 5.321564788568377 27.2190481440583 14.839543438078476 49.7329725621641 0 0 0 0 0 0 0 0 0 0 0 0 0 0 0 0 0 0 0 0 0 0 0 0 0 0 0 0 0 0 0 0 0 0 0 0 0 0 0 0 0 0 0 0 0 0 32.52667392937385 0 0 -35.00044290064474 0 0 0 0 0 0 0 0 0 0 18.168403253195194 2.4385839357223555 9.477297252938165 53.30220516764479 -31.59109216894932 41.289242723824 1.781291044639989 0.994013141383197 4.99848993868834 -14.712058906009275 13.737927559783653 39.39194205752698 0 0 0 0 0 0 0 0 0 0 0 0 0 0 0 0 0 0 0 0 0 0 0 0 0 0 0 0 0 0 0 0 0 0 0 0 0 0 0 0 0 0 0 0 0
2.1468555533869287 -11.147055686473893 1.9403505139599637 -179.99678542397032 -15.990663822933556 -106.00393703397401 20.976364496312662 9.195271729063938 13.526981635999016 9.57188627520424 56.84089500228244 6.1963940691972725 -0.003501796408491745 2.9991930859625673 -1.0023681868484131 0 0 0 17.916114899873467 -35.61671889870752 -68.28199490907475 -173.41813124029784 48.32352261224107 -171.21833230964097 0 20.996786438572162 0 0 0 0 0 79.38824229359064 0 0 23.081290563380385 0 0 0 0 0 1.5275236235667615 0 -92.51460027627094 -45.960442447690134 2.801913200570323 -147.82760037375155 -19.923408896304075 5.321564788568377 27.219046573204412 14.839546971007364 49.73296758288517 0 0 0 0 0 0 0 0 0 0 0 0 0 0 0 0 0 0 0 0 0 0 0 0 0 0 0 0 0 0 0 0 0 0 0 0 0 0 0 0 0 0 0 0 0 0 32.52667392937385 0 0 -35.00044290064474 0 0 0 0 0 0 0 0 0 0 18.168403253195194 2.4385839357223555 9.477297252938165 53.30219873845713 -31.591080141264186 41.28924044524663 0.7033392651142033 0.993942054030211 4.998684950646197 -14.712058906009275 13.737927559783653 39.39194205752698 0 0 0 0 0 0 0 0 0 0 0 0 0 0 0 0 0 0 0 0 0 0 0 0 0 0 0 0 0 0 0 0 0 0 0 0 0 0 0 0 0 0 0 0 0
2.1468555533869287 -11.147055686473893 1.8990495060745707 -179.99678485197077 -15.990665599211075 -106.00393020423839 21.52384231364243 9.850053083807364 13.441978405947463 9.226411530591953 55.85861193854227 5.903281566395241 -0.003501796408491745 2.9991939409072557 -1.0023681868484131 0 0 0 17.984251867692397 -35.909593192729744 -68.39791730774104 -173.41813124029784 48.32352261224107 -171.21833230964097 0 20.996786438572162 0 0 0 0 -2.206191913769544e-14 79.38824229359064 -2.6579258807799976e-14 0 23.081294275643288 0 0 0 0 0 1.5275236235667615 0 -92.51460027627094 -45.960442447690134 2.801913200570323 -147.82760037375155 -19.923408896304075 5.321564788568377 27.219046573204412 14.839546971007364 49.73296758288517 0 0 0 0 0 0 0 0 0 0 0 0 0 0 0 0 0 0 0 0 0 0 0 0 0 0 0 0 0 0 0 0 0 0 0 0 0 0 0 0 0 0 0 0 0 0 32.52667392937385 0 0 -35.00044290064474 0 0 0 0 0 0 0 0 0 0 18.168403253195194 2.4385839357223555 9.477297252938165 53.30220516764479 -31.59109216894932 41.289242723824 -0.3748982273103606 0.9938750227137818 4.998878814327072 -14.712058906009275 13.737927559783653 39.39194205752698 0 0 0 0 0 0 0 0 0 0 0 0 0 0 0 0 0 0 0 0 0 0 0 0 0 0 0 0 0 0 0 0 0 0 0 0 0 0 0 0 0 0 0 0 0
2.1468555533869287 -11.147055686473893 1.8577484981891776 -179.99678485197077 -15.990665599211075 -106.00393020423839 22.07148511173468 10.505644006630204 13.36315866264926 8.898120169062546 54.87530312537132 5.627633429374283 -0.003501796408491745 2.9991939409072557 -1.0023681868484131 0 0 0 18.05338103059526 -36.20236635783348 -68.5147220405955 -173.41813124029784 48.32352261224107 -171.21833230964097 0 20.996786438572162 0 0 0 0 -2.206191913769544e-14 79.38824229359064 -2.6579258807799976e-14 0 23.081294275643288 0 0 0 0 0 1.5275236235667615 0 -92.51460027627094 -45.960442447690134 2.801913200570323 -147.82760037375155 -19.923408896304075 5.321564788568377 27.219046573204412 14.839546971007364 49.73296758288517 0 0 0 0 0 0 0 0 0 0 0 0 0 0 0 0 0 0 0 0 0 0 0 0 0 0 0 0 0 0 0 0 0 0 0 0 0 0 0 0 0 0 0 0 0 0 32.52667392937385 0 0 -35.00044290064474 0 0 0 0 0 0 0 0 0 0 18.168403253195194 2.4385839357223555 9.477297252938165 53.30220516764479 -31.59109216894932 41.289242723824 -1.4532324524398725 0.9938109800560441 4.999073826274771 -14.712058906009275 13.737927559783653 39.39194205752698 0 0 0 0 0 0 0 0 0 0 0 0 0 0 0 0 0 0 0 0 0 0 0 0 0 0 0 0 0 0 0 0 0 0 0 0 0 0 0 0 0 0 0 0 0
